<?xml version="1.0" encoding="iso-8859-1"?>
<!-- Generator: Adobe Illustrator 17.1.0, SVG Export Plug-In . SVG Version: 6.00 Build 0)  -->
<!DOCTYPE svg PUBLIC "-//W3C//DTD SVG 1.1//EN" "http://www.w3.org/Graphics/SVG/1.1/DTD/svg11.dtd">
<svg version="1.1" id="Capa_1" xmlns="http://www.w3.org/2000/svg" xmlns:xlink="http://www.w3.org/1999/xlink" x="0px" y="0px"
	 viewBox="0 0 222.837 222.837" style="enable-background:new 0 0 222.837 222.837;" xml:space="preserve">
<path d="M209.263,68.087h-44.174V16.5c0-9.098-7.402-16.5-16.5-16.5h-74.34c-9.098,0-16.5,7.402-16.5,16.5v51.587H13.574
	c-2.762,0-5,2.238-5,5v11.601c0,2.762,2.238,5,5,5h5.636c0.504,5.601,1.858,14.877,5.483,21.984
	c4.063,7.967,10.943,14.28,16.16,18.267v6.946c0,7.673,6.065,13.938,13.65,14.298l-16.772,65.411
	c-0.686,2.675,0.927,5.399,3.602,6.086c0.417,0.106,0.835,0.157,1.246,0.157c2.228,0,4.261-1.501,4.84-3.759l8.057-31.421h111.887
	l8.057,31.421c0.579,2.258,2.611,3.759,4.84,3.759c0.411,0,0.829-0.051,1.246-0.157c2.675-0.687,4.287-3.411,3.602-6.086
	l-16.772-65.411c7.585-0.36,13.65-6.626,13.65-14.298v-12.353c0-2.762-2.238-5-5-5H45.853c-0.574,0-1.116,0.116-1.629,0.294
	c-3.815-3.241-8.023-7.6-10.623-12.697c-2.708-5.311-3.858-12.608-4.342-17.441h28.491V100.7c0,2.762,2.238,5,5,5h97.34
	c2.762,0,5-2.238,5-5V89.688h44.174c2.762,0,5-2.238,5-5V73.087C214.263,70.325,212.024,68.087,209.263,68.087z M64.819,151.218
	h93.2l6.779,26.439H58.039L64.819,151.218z"/>
<g>
</g>
<g>
</g>
<g>
</g>
<g>
</g>
<g>
</g>
<g>
</g>
<g>
</g>
<g>
</g>
<g>
</g>
<g>
</g>
<g>
</g>
<g>
</g>
<g>
</g>
<g>
</g>
<g>
</g>
</svg>
