<?xml version="1.0" standalone="no"?>
<!DOCTYPE svg PUBLIC "-//W3C//DTD SVG 20010904//EN"
 "http://www.w3.org/TR/2001/REC-SVG-20010904/DTD/svg10.dtd">
<svg version="1.0" xmlns="http://www.w3.org/2000/svg"
 width="600.000000pt" height="470.000000pt" viewBox="0 0 600.000000 470.000000"
 preserveAspectRatio="xMidYMid meet">
<metadata>
Created by potrace 1.16, written by Peter Selinger 2001-2019
</metadata>
<g transform="translate(0.000000,470.000000) scale(0.100000,-0.100000)"
fill="#000000" stroke="none">
<path d="M2702 4583 c-30 -4 -36 -12 -76 -96 -23 -51 -48 -105 -55 -121 l-12
-29 -25 34 c-33 45 -55 52 -139 44 -133 -14 -249 -64 -316 -138 -23 -24 -29
-41 -29 -74 0 -36 -3 -43 -20 -43 -23 0 -215 -142 -234 -173 -11 -18 -11 -40
-1 -120 13 -112 22 -97 -76 -131 -79 -28 -81 -34 -49 -161 15 -60 32 -122 38
-136 8 -21 7 -31 -6 -50 -12 -16 -19 -52 -22 -113 l-5 -90 -142 -95 c-168
-113 -292 -217 -352 -294 -52 -68 -90 -158 -91 -212 0 -34 7 -46 50 -90 49
-50 49 -51 60 -140 15 -126 38 -216 59 -240 52 -57 56 -128 11 -198 -24 -39
-30 -58 -30 -105 0 -76 23 -169 59 -240 43 -85 46 -87 127 -52 89 37 189 54
280 47 112 -8 112 -10 38 -97 -103 -120 -158 -258 -140 -353 19 -99 154 -318
280 -455 223 -240 591 -441 969 -528 87 -20 97 -16 97 38 0 53 8 60 48 39 47
-24 126 -50 178 -60 l41 -8 37 68 c149 275 392 545 634 704 l43 28 54 -53 54
-53 38 25 c192 127 441 391 564 599 23 38 44 69 48 69 3 0 28 -36 56 -80 27
-44 52 -80 56 -80 8 0 123 241 154 325 82 220 128 484 128 740 -1 759 -392
1443 -1050 1836 -258 153 -554 248 -918 293 -129 16 -359 27 -413 19z m434
-164 c60 -6 154 -19 209 -30 104 -21 294 -75 308 -88 5 -5 -40 -11 -100 -15
-190 -13 -353 -58 -484 -136 -77 -46 -271 -213 -455 -393 l-132 -128 -65 13
-66 12 -116 239 c-133 273 -132 249 -22 308 55 29 71 33 142 34 l80 0 -2 -259
c-2 -143 1 -256 5 -250 5 5 21 38 37 74 89 207 249 499 322 588 l34 42 98 0
c54 0 147 -5 207 -11z m741 -235 c32 -8 79 -27 106 -42 159 -91 391 -292 519
-451 217 -269 372 -615 419 -933 12 -80 7 -307 -8 -372 -5 -27 -8 -23 -28 45
-174 581 -516 1006 -939 1164 -62 24 -43 33 70 34 94 1 193 -22 314 -74 46
-20 85 -33 87 -31 8 8 -90 75 -177 120 -218 113 -452 147 -700 101 -14 -3 -34
2 -44 10 -19 15 -19 15 3 39 30 32 132 82 206 101 112 30 294 17 424 -30 24
-8 46 -13 48 -11 6 6 -89 64 -159 95 -98 45 -210 71 -329 78 -111 6 -249 -8
-306 -32 -27 -11 -48 -11 -137 2 -67 11 -106 21 -106 28 0 18 86 94 123 110
51 21 191 55 270 65 93 11 271 3 344 -16z m-1754 -229 c44 -89 107 -253 107
-280 0 -10 -21 -4 -72 21 -40 19 -99 40 -131 46 -52 11 -60 16 -87 58 -16 25
-36 62 -44 82 -15 35 -15 37 13 76 40 55 141 113 163 93 3 -3 26 -46 51 -96z
m1083 -149 c193 -65 346 -183 417 -322 16 -30 15 -34 -10 -84 -46 -93 -140
-152 -360 -224 -102 -34 -112 -39 -103 -56 6 -10 14 -21 18 -24 5 -3 67 2 138
10 l129 14 60 -62 c33 -35 76 -94 96 -133 38 -71 89 -220 89 -256 0 -19 -2
-19 -33 5 -49 38 -181 97 -229 103 l-43 6 27 -29 c15 -16 41 -60 59 -98 41
-87 51 -214 25 -315 -17 -68 -64 -181 -75 -181 -3 0 -18 22 -32 48 -15 26 -46
72 -70 102 l-44 55 -5 -120 c-4 -75 -13 -140 -24 -172 -42 -125 -189 -301
-356 -428 -142 -107 -240 -217 -295 -328 -66 -133 -78 -205 -71 -407 6 -177
20 -266 60 -381 14 -40 24 -74 23 -75 -8 -7 -235 176 -286 232 -140 153 -204
280 -204 404 1 156 36 193 398 423 279 177 368 245 433 336 75 105 97 182 96
336 0 135 -18 235 -69 391 -38 115 -104 264 -117 264 -20 0 -18 -33 6 -132 34
-140 47 -242 47 -373 0 -202 -44 -336 -138 -427 -77 -73 -427 -348 -435 -340
-12 12 10 120 33 164 21 41 44 65 224 238 129 124 171 186 200 295 18 71 19
208 2 249 l-13 30 -28 -36 c-15 -20 -37 -61 -48 -90 -26 -70 -59 -112 -111
-142 -44 -26 -117 -49 -117 -38 0 4 13 75 29 157 22 114 27 153 18 162 -7 7
-33 18 -60 25 l-47 12 -45 -50 c-24 -28 -57 -56 -72 -62 -15 -7 -91 -25 -168
-42 -154 -33 -185 -40 -185 -46 0 -2 21 -30 46 -63 35 -45 46 -69 49 -102 4
-53 34 -80 127 -114 62 -22 62 -23 30 -30 -24 -5 -50 0 -103 21 -63 25 -71 26
-85 12 -14 -14 -14 -20 6 -58 l22 -43 -29 8 c-15 4 -48 9 -71 12 l-44 5 27
-40 c37 -56 28 -70 -20 -30 -45 38 -91 42 -80 7 8 -25 0 -24 -38 3 -19 14 -32
18 -34 11 -5 -14 -112 21 -198 65 -94 47 -142 87 -174 144 -33 58 -51 140 -33
146 6 2 34 32 62 67 57 74 101 102 134 87 37 -16 86 38 86 94 l0 32 -62 -26
c-56 -23 -74 -26 -163 -24 -55 2 -133 4 -173 5 -40 1 -72 6 -72 12 0 25 64
116 121 174 60 60 328 246 469 324 30 17 59 36 63 41 4 6 6 39 3 72 -4 55 -2
66 23 105 36 58 134 146 215 193 36 21 63 42 60 47 -11 18 -54 8 -145 -35 -52
-24 -97 -41 -101 -38 -9 9 -38 120 -38 144 0 30 37 41 124 35 87 -6 188 -37
232 -72 23 -19 25 -23 13 -48 -8 -17 -35 -39 -72 -59 -92 -49 -146 -104 -153
-156 l-7 -44 51 54 c65 69 154 121 270 158 82 27 98 29 139 20 25 -6 58 -9 72
-6 23 5 33 -4 84 -69 57 -73 60 -75 103 -75 24 0 44 -2 44 -5 0 -3 -16 -28
-36 -55 -20 -28 -34 -54 -30 -57 3 -3 39 -8 80 -11 70 -4 78 -3 132 28 l57 32
-8 -29 c-3 -15 -9 -78 -12 -140 -5 -101 -2 -122 21 -204 31 -108 91 -227 154
-307 24 -31 55 -79 68 -106 20 -43 24 -47 31 -30 4 10 8 78 8 149 -1 149 -19
237 -85 412 -22 59 -40 116 -40 128 0 35 58 112 120 160 58 45 192 115 218
115 20 0 7 46 -22 85 -28 36 -126 95 -218 131 -66 27 -67 27 -120 10 -29 -10
-82 -36 -118 -59 -66 -41 -102 -49 -164 -33 -87 22 54 150 244 223 102 39 117
40 206 9z m921 -606 c325 -164 519 -446 577 -843 16 -103 22 -387 10 -400 -4
-4 -17 22 -29 56 -56 160 -172 324 -263 371 l-33 17 8 -63 c15 -116 7 -305
-16 -402 -27 -111 -94 -256 -162 -347 -74 -101 -267 -274 -285 -257 -3 3 -9
48 -15 99 -12 118 -19 159 -29 159 -16 0 -30 -28 -56 -110 -49 -156 -76 -204
-166 -293 -46 -45 -132 -122 -191 -172 -157 -129 -255 -270 -303 -434 l-21
-74 -26 44 c-54 94 -71 220 -43 324 32 122 98 227 226 360 105 110 142 155
257 315 107 151 110 155 91 144 -51 -32 -574 -494 -612 -541 -61 -77 -113
-185 -130 -269 -8 -38 -17 -127 -21 -198 -6 -106 -9 -126 -20 -115 -26 27 -94
165 -121 244 -56 167 -40 383 39 513 49 82 186 222 441 451 312 281 440 431
534 624 68 140 122 346 122 463 0 100 37 18 65 -141 31 -181 14 -407 -42 -580
-26 -82 -90 -219 -125 -267 -19 -28 -19 -28 0 -28 50 0 180 138 237 250 42 83
76 211 82 305 11 173 -26 499 -82 733 -14 57 -25 105 -25 108 0 13 39 -1 127
-46z m-2553 -1219 c93 -50 117 -69 172 -132 66 -77 71 -87 54 -120 -10 -17
-22 -19 -123 -19 -109 -1 -235 -12 -269 -25 -21 -8 -56 56 -64 118 -6 40 -3
49 39 106 25 33 51 77 57 96 6 19 15 35 18 35 4 0 56 -27 116 -59z m356 -808
c29 -91 78 -194 143 -306 30 -51 76 -132 102 -182 26 -49 58 -105 71 -124 13
-19 21 -37 19 -39 -8 -8 -146 111 -217 187 -38 42 -99 119 -134 172 -69 103
-154 278 -154 318 0 36 35 103 83 157 l42 48 11 -82 c7 -44 22 -112 34 -149z"/>
<path d="M2245 3331 c-56 -23 -74 -36 -94 -67 -14 -21 -38 -59 -53 -83 -29
-43 -29 -44 -8 -58 11 -8 20 -21 20 -29 0 -8 9 -14 19 -14 39 0 30 -19 -24
-49 -30 -17 -68 -31 -84 -31 -17 0 -34 -6 -38 -13 -4 -7 -75 -57 -158 -112
-82 -54 -152 -100 -153 -101 -2 -1 -1 -12 3 -24 6 -20 13 -22 49 -18 51 6 144
65 169 108 12 19 42 41 90 64 46 23 64 35 50 36 -41 0 -19 30 23 30 8 0 32 12
54 26 35 23 44 25 66 15 52 -23 116 -8 158 38 11 12 29 21 41 21 11 0 30 7 41
15 18 14 17 14 -12 15 -17 0 -68 19 -115 43 -74 37 -84 45 -81 66 3 33 45 86
95 122 49 36 33 36 -58 0z"/>
</g>
</svg>
